{"title":"House of Bamboo (1955).avi","uid":5875287,"size":846958644,"categoryP":"video","categoryS":"movies","magnet":"?xt=urn:btih:f0928b79b5d8a5bfa72c782a3da98618137d5d40&amp;dn=House+of+Bamboo+%281955%29.avi&amp;tr=udp%3A%2F%2Ftracker.openbittorrent.com%3A80&amp;tr=udp%3A%2F%2Fopen.demonii.com%3A1337&amp;tr=udp%3A%2F%2Ftracker.coppersurfer.tk%3A6969&amp;tr=udp%3A%2F%2Fexodus.desync.com%3A6969","seeders":1,"leechers":0,"uploader":null,"files":1,"time":1286614896,"description":"In Tokyo, a ruthless gang starts holding up U.S. ammunition trains, prepared to kill any of their own members wounded during a robbery. Down-at-heal ex-serviceman Eddie Spannier arrives from the States, apparently at the invitation of one such unfortunate. But Eddie isn't quite what he seems as he manages to make contact with Sandy Dawson, who is obviously running some sort of big operation, and his plan is helped by acquaintance with Mariko, the secret Japanese wife of the dead American.\n\nRobert Ryan                Sandy Dawson\nRobert Stack               Eddie Kenner\nShirley Yamaguchi          Mariko\nCameron Mitchell           Griff\n\n     \n   Video #0\n      ID : 0\n      Format : AVC\n      Format/Info : Advanced Video Codec\n      Codec ID : H264\n      Duration : 1h 42mn\n      Bit rate : 960 Kbps\n      Width : 720 pixels\n      Height : 282 pixels\n      Display aspect ratio : 2.553\n      Frame rate : 29.970 fps\n      Resolution : 24 bits\n      Bits/(Pixel*Frame) : 0.158\n      Stream size : 704 MiB (87%)\n   Audio #1\n      ID : 1\n      Format : MPEG Audio\n      Format version : Version 1\n      Format profile : Layer 3\n      Codec ID : 55\n      Codec ID/Hint : MP3\n      Duration : 1h 42mn\n      Bit rate mode : Constant\n      Bit rate : 128 Kbps\n      Channel(s) : 2 channels\n      Sampling rate : 48.0 KHz\n      Resolution : 16 bits\n      Stream size : 93.9 MiB (12%)\n      Alignment : Aligned on interleaves\n      Interleave, duration : 24 ms (0.72 video frame)\n      Interleave, preload duration : 24 ms\n      Writing library : LAME3.98.2\n","torrent":{"xt":"urn:btih:f0928b79b5d8a5bfa72c782a3da98618137d5d40","amp;dn":"House+of+Bamboo+%281955%29.avi","amp;tr":["udp%3A%2F%2Ftracker.openbittorrent.com%3A80","udp%3A%2F%2Fopen.demonii.com%3A1337","udp%3A%2F%2Ftracker.coppersurfer.tk%3A6969","udp%3A%2F%2Fexodus.desync.com%3A6969"],"infoHash":"f0928b79b5d8a5bfa72c782a3da98618137d5d40","infoHashBuffer":{"type":"Buffer","data":[240,146,139,121,181,216,165,191,167,44,120,42,61,169,134,24,19,125,93,64]},"announce":[],"urlList":[]}}